<mxfile host="Electron" agent="Mozilla/5.0 (Windows NT 10.0; Win64; x64) AppleWebKit/537.36 (KHTML, like Gecko) draw.io/27.0.9 Chrome/134.0.6998.205 Electron/35.4.0 Safari/537.36" version="27.0.9">
  <diagram name="第 1 页" id="u-nP56H6Wmwig5uB7CYJ">
    <mxGraphModel dx="-1145" dy="309" grid="1" gridSize="10" guides="1" tooltips="1" connect="1" arrows="1" fold="1" page="1" pageScale="1" pageWidth="827" pageHeight="1169" math="0" shadow="0">
      <root>
        <mxCell id="0" />
        <mxCell id="1" parent="0" />
        <mxCell id="t2UCjKY_MSiDwHSN88xn-1" value="音频渲染线程" style="shape=umlLifeline;perimeter=lifelinePerimeter;whiteSpace=wrap;container=1;dropTarget=0;collapsible=0;recursiveResize=0;outlineConnect=0;portConstraint=eastwest;newEdgeStyle={&quot;edgeStyle&quot;:&quot;elbowEdgeStyle&quot;,&quot;elbow&quot;:&quot;vertical&quot;,&quot;curved&quot;:0,&quot;rounded&quot;:0};size=65;fillColor=#e1d5e7;strokeColor=#9673a6;" parent="1" vertex="1">
          <mxGeometry x="1720" y="40" width="150" height="1920" as="geometry" />
        </mxCell>
        <mxCell id="t2UCjKY_MSiDwHSN88xn-2" value="同步时钟&#xa;(ClockManager)" style="shape=umlLifeline;perimeter=lifelinePerimeter;whiteSpace=wrap;container=1;dropTarget=0;collapsible=0;recursiveResize=0;outlineConnect=0;portConstraint=eastwest;newEdgeStyle={&quot;edgeStyle&quot;:&quot;elbowEdgeStyle&quot;,&quot;elbow&quot;:&quot;vertical&quot;,&quot;curved&quot;:0,&quot;rounded&quot;:0};size=65;fillColor=#e1d5e7;strokeColor=#9673a6;" parent="1" vertex="1">
          <mxGeometry x="1967" y="40" width="150" height="1920" as="geometry" />
        </mxCell>
        <mxCell id="t2UCjKY_MSiDwHSN88xn-3" value="视频渲染线程" style="shape=umlLifeline;perimeter=lifelinePerimeter;whiteSpace=wrap;container=1;dropTarget=0;collapsible=0;recursiveResize=0;outlineConnect=0;portConstraint=eastwest;newEdgeStyle={&quot;edgeStyle&quot;:&quot;elbowEdgeStyle&quot;,&quot;elbow&quot;:&quot;vertical&quot;,&quot;curved&quot;:0,&quot;rounded&quot;:0};size=65;fillColor=#e1d5e7;strokeColor=#9673a6;" parent="1" vertex="1">
          <mxGeometry x="2167" y="40" width="150" height="1920" as="geometry" />
        </mxCell>
        <mxCell id="t2UCjKY_MSiDwHSN88xn-4" value="主线程&#xa;(事件循环)" style="shape=umlLifeline;perimeter=lifelinePerimeter;whiteSpace=wrap;container=1;dropTarget=0;collapsible=0;recursiveResize=0;outlineConnect=0;portConstraint=eastwest;newEdgeStyle={&quot;edgeStyle&quot;:&quot;elbowEdgeStyle&quot;,&quot;elbow&quot;:&quot;vertical&quot;,&quot;curved&quot;:0,&quot;rounded&quot;:0};size=65;fillColor=#e1d5e7;strokeColor=#9673a6;" parent="1" vertex="1">
          <mxGeometry x="2492" y="40" width="150" height="1920" as="geometry" />
        </mxCell>
        <mxCell id="t2UCjKY_MSiDwHSN88xn-5" value="视频帧队列" style="shape=umlLifeline;perimeter=lifelinePerimeter;whiteSpace=wrap;container=1;dropTarget=0;collapsible=0;recursiveResize=0;outlineConnect=0;portConstraint=eastwest;newEdgeStyle={&quot;edgeStyle&quot;:&quot;elbowEdgeStyle&quot;,&quot;elbow&quot;:&quot;vertical&quot;,&quot;curved&quot;:0,&quot;rounded&quot;:0};size=65;fillColor=#e1d5e7;strokeColor=#9673a6;" parent="1" vertex="1">
          <mxGeometry x="2692" y="40" width="150" height="1920" as="geometry" />
        </mxCell>
        <mxCell id="t2UCjKY_MSiDwHSN88xn-6" value="SDLVideoRenderer" style="shape=umlLifeline;perimeter=lifelinePerimeter;whiteSpace=wrap;container=1;dropTarget=0;collapsible=0;recursiveResize=0;outlineConnect=0;portConstraint=eastwest;newEdgeStyle={&quot;edgeStyle&quot;:&quot;elbowEdgeStyle&quot;,&quot;elbow&quot;:&quot;vertical&quot;,&quot;curved&quot;:0,&quot;rounded&quot;:0};size=65;fillColor=#e1d5e7;strokeColor=#9673a6;" parent="1" vertex="1">
          <mxGeometry x="2892" y="40" width="152" height="1920" as="geometry" />
        </mxCell>
        <mxCell id="t2UCjKY_MSiDwHSN88xn-7" value="SDL API" style="shape=umlLifeline;perimeter=lifelinePerimeter;whiteSpace=wrap;container=1;dropTarget=0;collapsible=0;recursiveResize=0;outlineConnect=0;portConstraint=eastwest;newEdgeStyle={&quot;edgeStyle&quot;:&quot;elbowEdgeStyle&quot;,&quot;elbow&quot;:&quot;vertical&quot;,&quot;curved&quot;:0,&quot;rounded&quot;:0};size=65;fillColor=#e1d5e7;strokeColor=#9673a6;" parent="1" vertex="1">
          <mxGeometry x="3094" y="40" width="150" height="1920" as="geometry" />
        </mxCell>
        <mxCell id="t2UCjKY_MSiDwHSN88xn-8" value="loop" style="shape=umlFrame;dashed=1;pointerEvents=0;dropTarget=0;strokeColor=#B3B3B3;height=20;width=40;strokeWidth=4;fontStyle=1" parent="1" vertex="1">
          <mxGeometry x="1784" y="115" width="1416" height="215" as="geometry" />
        </mxCell>
        <mxCell id="t2UCjKY_MSiDwHSN88xn-9" value="[每次音频输出]" style="text;strokeColor=none;fillColor=none;align=center;verticalAlign=middle;whiteSpace=wrap;fontStyle=1" parent="t2UCjKY_MSiDwHSN88xn-8" vertex="1">
          <mxGeometry x="40.57306590257879" width="1375.426934097421" height="18.143459915611814" as="geometry" />
        </mxCell>
        <mxCell id="t2UCjKY_MSiDwHSN88xn-10" value="" style="shape=umlFrame;dashed=1;pointerEvents=0;dropTarget=0;strokeColor=#B3B3B3;height=20;width=0;strokeWidth=2;" parent="1" vertex="1">
          <mxGeometry x="2007" y="546" width="996" height="173" as="geometry" />
        </mxCell>
        <mxCell id="t2UCjKY_MSiDwHSN88xn-11" value="" style="text;strokeColor=none;fillColor=none;align=center;verticalAlign=middle;whiteSpace=wrap;" parent="t2UCjKY_MSiDwHSN88xn-10" vertex="1">
          <mxGeometry width="996" height="20" as="geometry" />
        </mxCell>
        <mxCell id="t2UCjKY_MSiDwHSN88xn-12" value="alt" style="shape=umlFrame;dashed=1;pointerEvents=0;dropTarget=0;strokeColor=#B3B3B3;height=20;width=30;strokeWidth=2;fontStyle=1" parent="1" vertex="1">
          <mxGeometry x="2090" y="738" width="1087" height="340" as="geometry" />
        </mxCell>
        <mxCell id="t2UCjKY_MSiDwHSN88xn-13" value="[delay &lt; 0 (视频严重落后)]" style="text;strokeColor=none;fillColor=none;align=center;verticalAlign=middle;whiteSpace=wrap;fontStyle=1" parent="t2UCjKY_MSiDwHSN88xn-12" vertex="1">
          <mxGeometry x="30" width="1057" height="32.075471698113205" as="geometry" />
        </mxCell>
        <mxCell id="t2UCjKY_MSiDwHSN88xn-14" value="[delay &gt; 0 (视频超前)]" style="shape=line;dashed=1;whiteSpace=wrap;verticalAlign=top;labelPosition=center;verticalLabelPosition=middle;align=center;strokeColor=#B3B3B3;strokeWidth=2;fontStyle=1" parent="t2UCjKY_MSiDwHSN88xn-12" vertex="1">
          <mxGeometry y="166.79088610652215" width="1087" height="6.415094339622641" as="geometry" />
        </mxCell>
        <mxCell id="t2UCjKY_MSiDwHSN88xn-15" value="alt" style="shape=umlFrame;dashed=1;pointerEvents=0;dropTarget=0;strokeColor=#B3B3B3;height=20;width=30;fontStyle=1;strokeWidth=2;" parent="1" vertex="1">
          <mxGeometry x="2157" y="1287" width="421" height="236" as="geometry" />
        </mxCell>
        <mxCell id="t2UCjKY_MSiDwHSN88xn-16" value="[视频播放已结束 (EOF)]" style="text;strokeColor=none;fillColor=none;align=center;verticalAlign=middle;whiteSpace=wrap;fontStyle=1" parent="t2UCjKY_MSiDwHSN88xn-15" vertex="1">
          <mxGeometry x="30" width="391" height="15.475409836065575" as="geometry" />
        </mxCell>
        <mxCell id="t2UCjKY_MSiDwHSN88xn-17" value="[取帧超时]" style="shape=line;dashed=1;whiteSpace=wrap;verticalAlign=top;labelPosition=center;verticalLabelPosition=middle;align=center;strokeColor=#B3B3B3;strokeWidth=2;fontStyle=1" parent="t2UCjKY_MSiDwHSN88xn-15" vertex="1">
          <mxGeometry y="169.45573770491805" width="421" height="3.095081967213115" as="geometry" />
        </mxCell>
        <mxCell id="t2UCjKY_MSiDwHSN88xn-18" value="alt" style="shape=umlFrame;dashed=1;pointerEvents=0;dropTarget=0;strokeColor=#B3B3B3;height=20;width=30;strokeWidth=3;fontStyle=1" parent="1" vertex="1">
          <mxGeometry x="1997" y="448" width="1193" height="1080" as="geometry" />
        </mxCell>
        <mxCell id="t2UCjKY_MSiDwHSN88xn-19" value="[已取到新帧]" style="text;strokeColor=none;fillColor=none;align=center;verticalAlign=middle;whiteSpace=wrap;fontStyle=1" parent="t2UCjKY_MSiDwHSN88xn-18" vertex="1">
          <mxGeometry x="-107" width="1163" height="20.84942084942085" as="geometry" />
        </mxCell>
        <mxCell id="t2UCjKY_MSiDwHSN88xn-20" value="[未取到新帧 (队列超时或为空)]" style="shape=line;dashed=1;whiteSpace=wrap;verticalAlign=top;labelPosition=center;verticalLabelPosition=middle;align=center;strokeColor=#B3B3B3;fontStyle=1;strokeWidth=3;" parent="t2UCjKY_MSiDwHSN88xn-18" vertex="1">
          <mxGeometry y="800.0043629343629" width="1193" height="4.1698841698841695" as="geometry" />
        </mxCell>
        <mxCell id="t2UCjKY_MSiDwHSN88xn-21" value="loop" style="shape=umlFrame;dashed=1;pointerEvents=0;dropTarget=0;strokeColor=#B3B3B3;height=20;width=40;strokeWidth=4;fontStyle=1" parent="1" vertex="1">
          <mxGeometry x="1987" y="350" width="1213" height="1188" as="geometry" />
        </mxCell>
        <mxCell id="t2UCjKY_MSiDwHSN88xn-22" value="[视频同步线程循环]" style="text;strokeColor=none;fillColor=none;align=center;verticalAlign=middle;whiteSpace=wrap;fontStyle=1" parent="t2UCjKY_MSiDwHSN88xn-21" vertex="1">
          <mxGeometry x="40" width="1173" height="20.76923076923077" as="geometry" />
        </mxCell>
        <mxCell id="t2UCjKY_MSiDwHSN88xn-23" value="alt" style="shape=umlFrame;dashed=1;pointerEvents=0;dropTarget=0;strokeColor=#B3B3B3;height=20;width=30;fontStyle=1;strokeWidth=2;" parent="1" vertex="1">
          <mxGeometry x="2560" y="1658" width="550" height="247" as="geometry" />
        </mxCell>
        <mxCell id="t2UCjKY_MSiDwHSN88xn-24" value="[收到 FF_REFRESH_EVENT]" style="text;strokeColor=none;fillColor=none;align=center;verticalAlign=middle;whiteSpace=wrap;fontStyle=1" parent="t2UCjKY_MSiDwHSN88xn-23" vertex="1">
          <mxGeometry x="30" width="520" height="18.71212121212121" as="geometry" />
        </mxCell>
        <mxCell id="t2UCjKY_MSiDwHSN88xn-25" value="[收到 SDL_WINDOWEVENT (如窗口大小改变、暴露)]" style="shape=line;dashed=1;whiteSpace=wrap;verticalAlign=top;labelPosition=center;verticalLabelPosition=middle;align=center;strokeColor=#B3B3B3;strokeWidth=2;fontStyle=1" parent="t2UCjKY_MSiDwHSN88xn-23" vertex="1">
          <mxGeometry y="146.8901515151515" width="550" height="3.742424242424242" as="geometry" />
        </mxCell>
        <mxCell id="t2UCjKY_MSiDwHSN88xn-26" value="loop" style="shape=umlFrame;dashed=1;pointerEvents=0;dropTarget=0;strokeColor=#B3B3B3;height=20;width=40;fontStyle=1;strokeWidth=2;" parent="1" vertex="1">
          <mxGeometry x="2550" y="1560" width="634" height="355" as="geometry" />
        </mxCell>
        <mxCell id="t2UCjKY_MSiDwHSN88xn-27" value="[主线程事件循环]" style="text;strokeColor=none;fillColor=none;align=center;verticalAlign=middle;whiteSpace=wrap;fontStyle=1" parent="t2UCjKY_MSiDwHSN88xn-26" vertex="1">
          <mxGeometry x="40" width="594" height="19.086021505376344" as="geometry" />
        </mxCell>
        <mxCell id="t2UCjKY_MSiDwHSN88xn-28" value="setAudioClock(frame.pts)" style="verticalAlign=bottom;edgeStyle=elbowEdgeStyle;elbow=vertical;curved=0;rounded=0;endArrow=block;" parent="1" source="t2UCjKY_MSiDwHSN88xn-1" target="t2UCjKY_MSiDwHSN88xn-2" edge="1">
          <mxGeometry relative="1" as="geometry">
            <Array as="points">
              <mxPoint x="1927" y="193" />
            </Array>
          </mxGeometry>
        </mxCell>
        <mxCell id="t2UCjKY_MSiDwHSN88xn-29" value="1" style="ellipse;aspect=fixed;fillColor=#000000;align=center;fontColor=#FFFFFF;" parent="t2UCjKY_MSiDwHSN88xn-28" vertex="1">
          <mxGeometry width="14" height="14" relative="1" as="geometry">
            <mxPoint x="-131" y="-7" as="offset" />
          </mxGeometry>
        </mxCell>
        <mxCell id="t2UCjKY_MSiDwHSN88xn-30" value="SDL_QueueAudio(pcm)" style="verticalAlign=bottom;edgeStyle=elbowEdgeStyle;elbow=vertical;curved=0;rounded=0;endArrow=block;" parent="1" edge="1">
          <mxGeometry relative="1" as="geometry">
            <Array as="points">
              <mxPoint x="2491" y="310" />
            </Array>
            <mxPoint x="1794.6666666666665" y="310" as="sourcePoint" />
            <mxPoint x="3168.5" y="310" as="targetPoint" />
          </mxGeometry>
        </mxCell>
        <mxCell id="t2UCjKY_MSiDwHSN88xn-31" value="2" style="ellipse;aspect=fixed;fillColor=#000000;align=center;fontColor=#FFFFFF;" parent="t2UCjKY_MSiDwHSN88xn-30" vertex="1">
          <mxGeometry width="14" height="14" relative="1" as="geometry">
            <mxPoint x="-694.5" y="-7" as="offset" />
          </mxGeometry>
        </mxCell>
        <mxCell id="t2UCjKY_MSiDwHSN88xn-32" value="pop(frame, 100 ms)" style="verticalAlign=bottom;edgeStyle=elbowEdgeStyle;elbow=vertical;curved=0;rounded=0;endArrow=block;" parent="1" edge="1">
          <mxGeometry relative="1" as="geometry">
            <Array as="points">
              <mxPoint x="2513" y="428" />
            </Array>
            <mxPoint x="2241.6304347826085" y="428" as="sourcePoint" />
            <mxPoint x="2766.5" y="428" as="targetPoint" />
          </mxGeometry>
        </mxCell>
        <mxCell id="t2UCjKY_MSiDwHSN88xn-33" value="3" style="ellipse;aspect=fixed;fillColor=#000000;align=center;fontColor=#FFFFFF;" parent="t2UCjKY_MSiDwHSN88xn-32" vertex="1">
          <mxGeometry width="14" height="14" relative="1" as="geometry">
            <mxPoint x="-270" y="-7" as="offset" />
          </mxGeometry>
        </mxCell>
        <mxCell id="t2UCjKY_MSiDwHSN88xn-34" value="delay = calculateSyncDelay(frame)" style="verticalAlign=bottom;edgeStyle=elbowEdgeStyle;elbow=vertical;curved=0;rounded=0;endArrow=block;" parent="1" edge="1">
          <mxGeometry relative="1" as="geometry">
            <Array as="points">
              <mxPoint x="2614" y="526" />
            </Array>
            <mxPoint x="2241.6304347826085" y="526" as="sourcePoint" />
            <mxPoint x="2967.5000000000005" y="526" as="targetPoint" />
          </mxGeometry>
        </mxCell>
        <mxCell id="t2UCjKY_MSiDwHSN88xn-35" value="4" style="ellipse;aspect=fixed;fillColor=#000000;align=center;fontColor=#FFFFFF;" parent="t2UCjKY_MSiDwHSN88xn-34" vertex="1">
          <mxGeometry width="14" height="14" relative="1" as="geometry">
            <mxPoint x="-370.5" y="-7" as="offset" />
          </mxGeometry>
        </mxCell>
        <mxCell id="t2UCjKY_MSiDwHSN88xn-36" value="setVideoClock(frame.pts)" style="verticalAlign=bottom;edgeStyle=elbowEdgeStyle;elbow=vertical;curved=0;rounded=0;endArrow=block;" parent="1" edge="1">
          <mxGeometry relative="1" as="geometry">
            <Array as="points">
              <mxPoint x="2517" y="647" />
            </Array>
            <mxPoint x="2967.5000000000005" y="647" as="sourcePoint" />
            <mxPoint x="2041.6304347826087" y="647" as="targetPoint" />
          </mxGeometry>
        </mxCell>
        <mxCell id="t2UCjKY_MSiDwHSN88xn-37" value="5" style="ellipse;aspect=fixed;fillColor=#000000;align=center;fontColor=#FFFFFF;" parent="t2UCjKY_MSiDwHSN88xn-36" vertex="1">
          <mxGeometry width="14" height="14" relative="1" as="geometry">
            <mxPoint x="456.5" y="-7" as="offset" />
          </mxGeometry>
        </mxCell>
        <mxCell id="t2UCjKY_MSiDwHSN88xn-38" value="master = getMasterClockTime()" style="verticalAlign=bottom;edgeStyle=elbowEdgeStyle;elbow=vertical;curved=0;rounded=0;endArrow=block;" parent="1" edge="1">
          <mxGeometry relative="1" as="geometry">
            <Array as="points">
              <mxPoint x="2517" y="699" />
            </Array>
            <mxPoint x="2967.5000000000005" y="699" as="sourcePoint" />
            <mxPoint x="2041.6304347826087" y="699" as="targetPoint" />
          </mxGeometry>
        </mxCell>
        <mxCell id="t2UCjKY_MSiDwHSN88xn-39" value="6" style="ellipse;aspect=fixed;fillColor=#000000;align=center;fontColor=#FFFFFF;" parent="t2UCjKY_MSiDwHSN88xn-38" vertex="1">
          <mxGeometry width="14" height="14" relative="1" as="geometry">
            <mxPoint x="456.5" y="-7" as="offset" />
          </mxGeometry>
        </mxCell>
        <mxCell id="t2UCjKY_MSiDwHSN88xn-42" value="prepareFrameForDisplay(frame)" style="verticalAlign=bottom;edgeStyle=elbowEdgeStyle;elbow=vertical;curved=0;rounded=0;endArrow=block;" parent="1" edge="1">
          <mxGeometry x="-0.012" y="5" relative="1" as="geometry">
            <Array as="points">
              <mxPoint x="2612.75" y="1137" />
            </Array>
            <mxPoint x="2240" y="1137" as="sourcePoint" />
            <mxPoint x="2966.25" y="1137" as="targetPoint" />
            <mxPoint as="offset" />
          </mxGeometry>
        </mxCell>
        <mxCell id="t2UCjKY_MSiDwHSN88xn-43" value="9" style="ellipse;aspect=fixed;fillColor=#000000;align=center;fontColor=#FFFFFF;" parent="t2UCjKY_MSiDwHSN88xn-42" vertex="1">
          <mxGeometry width="14" height="14" relative="1" as="geometry">
            <mxPoint x="-368" y="-7" as="offset" />
          </mxGeometry>
        </mxCell>
        <mxCell id="t2UCjKY_MSiDwHSN88xn-44" value="SDL_PushEvent(FF_REFRESH_EVENT)" style="verticalAlign=bottom;edgeStyle=elbowEdgeStyle;elbow=vertical;curved=0;rounded=0;endArrow=block;" parent="1" edge="1">
          <mxGeometry relative="1" as="geometry">
            <Array as="points">
              <mxPoint x="2413" y="1205" />
            </Array>
            <mxPoint x="2241.6666666666665" y="1205" as="sourcePoint" />
            <mxPoint x="2566.5" y="1205" as="targetPoint" />
          </mxGeometry>
        </mxCell>
        <mxCell id="t2UCjKY_MSiDwHSN88xn-45" value="10" style="ellipse;aspect=fixed;fillColor=#000000;align=center;fontColor=#FFFFFF;" parent="t2UCjKY_MSiDwHSN88xn-44" vertex="1">
          <mxGeometry width="14" height="14" relative="1" as="geometry">
            <mxPoint x="-169" y="-7" as="offset" />
          </mxGeometry>
        </mxCell>
        <mxCell id="t2UCjKY_MSiDwHSN88xn-46" value="SDL_PushEvent(FF_QUIT_EVENT)" style="verticalAlign=bottom;edgeStyle=elbowEdgeStyle;elbow=vertical;curved=0;rounded=0;endArrow=block;" parent="1" edge="1">
          <mxGeometry relative="1" as="geometry">
            <Array as="points">
              <mxPoint x="2413" y="1347" />
            </Array>
            <mxPoint x="2241.6666666666665" y="1347" as="sourcePoint" />
            <mxPoint x="2566.5" y="1347" as="targetPoint" />
          </mxGeometry>
        </mxCell>
        <mxCell id="t2UCjKY_MSiDwHSN88xn-47" value="11" style="ellipse;aspect=fixed;fillColor=#000000;align=center;fontColor=#FFFFFF;" parent="t2UCjKY_MSiDwHSN88xn-46" vertex="1">
          <mxGeometry width="14" height="14" relative="1" as="geometry">
            <mxPoint x="-170" y="-7" as="offset" />
          </mxGeometry>
        </mxCell>
        <mxCell id="t2UCjKY_MSiDwHSN88xn-48" value="continue" style="curved=1;dashed=1;dashPattern=2 3;endArrow=block;rounded=0;" parent="1" edge="1">
          <mxGeometry relative="1" as="geometry">
            <Array as="points">
              <mxPoint x="2291.33" y="1477" />
              <mxPoint x="2291.33" y="1507" />
            </Array>
            <mxPoint x="2239.9966666666664" y="1477" as="sourcePoint" />
            <mxPoint x="2239.9966666666664" y="1507" as="targetPoint" />
          </mxGeometry>
        </mxCell>
        <mxCell id="t2UCjKY_MSiDwHSN88xn-49" value="12" style="ellipse;aspect=fixed;fillColor=#000000;align=center;fontColor=#FFFFFF;" parent="t2UCjKY_MSiDwHSN88xn-48" vertex="1">
          <mxGeometry width="14" height="14" relative="1" as="geometry">
            <mxPoint x="-57" y="-22" as="offset" />
          </mxGeometry>
        </mxCell>
        <mxCell id="t2UCjKY_MSiDwHSN88xn-50" value="SDL_WaitEvent()" style="verticalAlign=bottom;edgeStyle=elbowEdgeStyle;elbow=vertical;curved=0;rounded=0;endArrow=block;" parent="1" edge="1">
          <mxGeometry relative="1" as="geometry">
            <Array as="points">
              <mxPoint x="2885.32" y="1625" />
            </Array>
            <mxPoint x="2574.0018181818186" y="1625" as="sourcePoint" />
            <mxPoint x="3176.82" y="1625" as="targetPoint" />
          </mxGeometry>
        </mxCell>
        <mxCell id="t2UCjKY_MSiDwHSN88xn-51" value="13" style="ellipse;aspect=fixed;fillColor=#000000;align=center;fontColor=#FFFFFF;" parent="t2UCjKY_MSiDwHSN88xn-50" vertex="1">
          <mxGeometry width="14" height="14" relative="1" as="geometry">
            <mxPoint x="-315" y="-7" as="offset" />
          </mxGeometry>
        </mxCell>
        <mxCell id="t2UCjKY_MSiDwHSN88xn-52" value="displayFrame()" style="verticalAlign=bottom;edgeStyle=elbowEdgeStyle;elbow=vertical;curved=0;rounded=0;endArrow=block;" parent="1" edge="1">
          <mxGeometry relative="1" as="geometry">
            <Array as="points">
              <mxPoint x="2780.41" y="1715" />
            </Array>
            <mxPoint x="2570.0918181818183" y="1715" as="sourcePoint" />
            <mxPoint x="2971.91" y="1715" as="targetPoint" />
          </mxGeometry>
        </mxCell>
        <mxCell id="t2UCjKY_MSiDwHSN88xn-53" value="14" style="ellipse;aspect=fixed;fillColor=#000000;align=center;fontColor=#FFFFFF;" parent="t2UCjKY_MSiDwHSN88xn-52" vertex="1">
          <mxGeometry width="14" height="14" relative="1" as="geometry">
            <mxPoint x="-211" y="-7" as="offset" />
          </mxGeometry>
        </mxCell>
        <mxCell id="t2UCjKY_MSiDwHSN88xn-54" value="refresh()" style="verticalAlign=bottom;edgeStyle=elbowEdgeStyle;elbow=vertical;curved=0;rounded=0;endArrow=block;" parent="1" edge="1">
          <mxGeometry relative="1" as="geometry">
            <Array as="points">
              <mxPoint x="2780.41" y="1885" />
            </Array>
            <mxPoint x="2570.0918181818183" y="1885" as="sourcePoint" />
            <mxPoint x="2971.91" y="1885" as="targetPoint" />
          </mxGeometry>
        </mxCell>
        <mxCell id="t2UCjKY_MSiDwHSN88xn-55" value="15" style="ellipse;aspect=fixed;fillColor=#000000;align=center;fontColor=#FFFFFF;" parent="t2UCjKY_MSiDwHSN88xn-54" vertex="1">
          <mxGeometry width="14" height="14" relative="1" as="geometry">
            <mxPoint x="-211" y="-7" as="offset" />
          </mxGeometry>
        </mxCell>
        <mxCell id="t2UCjKY_MSiDwHSN88xn-56" value="实际播放时间点会由&#xa;ClockManager根据SDL&#xa;音频缓冲区大小校正" style="fillColor=#ffff88;strokeColor=#9E916F;" parent="1" vertex="1">
          <mxGeometry x="1820" y="213" width="180" height="67" as="geometry" />
        </mxCell>
        <mxCell id="t2UCjKY_MSiDwHSN88xn-57" value="calculateSyncDelay 内部实现" style="fillColor=#ffff88;strokeColor=#9E916F;fontStyle=0" parent="1" vertex="1">
          <mxGeometry x="2017" y="566" width="976" height="49" as="geometry" />
        </mxCell>
        <mxCell id="t2UCjKY_MSiDwHSN88xn-59" value="转换色彩空间(sws_scale)，&#xa;为纹理准备好YUV数据" style="fillColor=#ffff88;strokeColor=#9E916F;" parent="1" vertex="1">
          <mxGeometry x="2863.5" y="1151" width="209" height="48" as="geometry" />
        </mxCell>
        <mxCell id="t2UCjKY_MSiDwHSN88xn-60" value="线程准备退出" style="fillColor=#ffff88;strokeColor=#9E916F;" parent="1" vertex="1">
          <mxGeometry x="2167" y="1377" width="150" height="49" as="geometry" />
        </mxCell>
        <mxCell id="t2UCjKY_MSiDwHSN88xn-61" value="内部调用 SDL_UpdateYUVTexture&#xa;和 SDL_RenderPresent()" style="fillColor=#ffff88;strokeColor=#9E916F;" parent="1" vertex="1">
          <mxGeometry x="2844.5" y="1735" width="255" height="50" as="geometry" />
        </mxCell>
        <mxCell id="t2UCjKY_MSiDwHSN88xn-65" value="音频渲染线程" style="rounded=0;whiteSpace=wrap;html=1;fillColor=#e1d5e7;strokeColor=#9673a6;" parent="1" vertex="1">
          <mxGeometry x="1720" y="1930" width="150" height="60" as="geometry" />
        </mxCell>
        <mxCell id="t2UCjKY_MSiDwHSN88xn-67" value="&lt;span style=&quot;font-weight: 400;&quot;&gt;同步时钟&lt;/span&gt;&lt;br style=&quot;padding: 0px; margin: 0px; font-weight: 400;&quot;&gt;&lt;span style=&quot;font-weight: 400;&quot;&gt;(ClockManager)&lt;/span&gt;" style="rounded=0;whiteSpace=wrap;html=1;fillColor=#e1d5e7;strokeColor=#9673a6;fontStyle=1" parent="1" vertex="1">
          <mxGeometry x="1967" y="1930" width="150" height="60" as="geometry" />
        </mxCell>
        <mxCell id="t2UCjKY_MSiDwHSN88xn-68" value="视频渲染线程" style="rounded=0;whiteSpace=wrap;html=1;fillColor=#e1d5e7;strokeColor=#9673a6;" parent="1" vertex="1">
          <mxGeometry x="2167.5" y="1930" width="150" height="60" as="geometry" />
        </mxCell>
        <mxCell id="t2UCjKY_MSiDwHSN88xn-69" value="主线程&lt;br style=&quot;padding: 0px; margin: 0px;&quot;&gt;(事件循环)" style="rounded=0;whiteSpace=wrap;html=1;fillColor=#e1d5e7;strokeColor=#9673a6;" parent="1" vertex="1">
          <mxGeometry x="2492" y="1930" width="150" height="60" as="geometry" />
        </mxCell>
        <mxCell id="t2UCjKY_MSiDwHSN88xn-70" value="视频帧队列" style="rounded=0;whiteSpace=wrap;html=1;fillColor=#e1d5e7;strokeColor=#9673a6;" parent="1" vertex="1">
          <mxGeometry x="2692" y="1930" width="150" height="60" as="geometry" />
        </mxCell>
        <mxCell id="t2UCjKY_MSiDwHSN88xn-71" value="SDLVideoRenderer" style="rounded=0;whiteSpace=wrap;html=1;fillColor=#e1d5e7;strokeColor=#9673a6;" parent="1" vertex="1">
          <mxGeometry x="2893" y="1930" width="150" height="60" as="geometry" />
        </mxCell>
        <mxCell id="t2UCjKY_MSiDwHSN88xn-72" value="SDL API" style="rounded=0;whiteSpace=wrap;html=1;fillColor=#e1d5e7;strokeColor=#9673a6;" parent="1" vertex="1">
          <mxGeometry x="3094" y="1930" width="150" height="60" as="geometry" />
        </mxCell>
        <mxCell id="pYBCuMitxjgKuPWn2Mfe-73" value="收到丢帧信号(SYNC_SIGNAL_DROP_FRAME)，&#xa;丢弃当前帧，立即进入下一轮循环追赶时钟" style="fillColor=#ffff88;strokeColor=#9E916F;" vertex="1" parent="1">
          <mxGeometry x="2103.5" y="768" width="277" height="68" as="geometry" />
        </mxCell>
        <mxCell id="pYBCuMitxjgKuPWn2Mfe-74" value="continue" style="curved=1;dashed=1;dashPattern=2 3;endArrow=block;rounded=0;" edge="1" parent="1">
          <mxGeometry relative="1" as="geometry">
            <Array as="points">
              <mxPoint x="2291" y="858" />
              <mxPoint x="2291" y="888" />
            </Array>
            <mxPoint x="2240" y="858" as="sourcePoint" />
            <mxPoint x="2240" y="888" as="targetPoint" />
          </mxGeometry>
        </mxCell>
        <mxCell id="pYBCuMitxjgKuPWn2Mfe-75" value="7" style="ellipse;aspect=fixed;fillColor=#000000;align=center;fontColor=#FFFFFF;" vertex="1" parent="pYBCuMitxjgKuPWn2Mfe-74">
          <mxGeometry width="14" height="14" relative="1" as="geometry">
            <mxPoint x="-57" y="-22" as="offset" />
          </mxGeometry>
        </mxCell>
        <mxCell id="pYBCuMitxjgKuPWn2Mfe-76" value="SDL_Delay(delay * 1000)" style="verticalAlign=bottom;edgeStyle=elbowEdgeStyle;elbow=vertical;curved=0;rounded=0;endArrow=block;" edge="1" parent="1">
          <mxGeometry relative="1" as="geometry">
            <Array as="points">
              <mxPoint x="2713" y="958" />
            </Array>
            <mxPoint x="2240" y="958" as="sourcePoint" />
            <mxPoint x="3168" y="958" as="targetPoint" />
          </mxGeometry>
        </mxCell>
        <mxCell id="pYBCuMitxjgKuPWn2Mfe-77" value="8" style="ellipse;aspect=fixed;fillColor=#000000;align=center;fontColor=#FFFFFF;" vertex="1" parent="pYBCuMitxjgKuPWn2Mfe-76">
          <mxGeometry width="14" height="14" relative="1" as="geometry">
            <mxPoint x="-471" y="-7" as="offset" />
          </mxGeometry>
        </mxCell>
        <mxCell id="pYBCuMitxjgKuPWn2Mfe-78" value="[视频准时或轻微落后 (delay &gt;= 0)]" style="shape=line;dashed=1;whiteSpace=wrap;verticalAlign=top;labelPosition=center;verticalLabelPosition=middle;align=center;strokeColor=#B3B3B3;strokeWidth=2;fontStyle=1" vertex="1" parent="1">
          <mxGeometry x="2090" y="988" width="1087" height="6.792452830188679" as="geometry" />
        </mxCell>
        <mxCell id="pYBCuMitxjgKuPWn2Mfe-79" value="立即处理当前帧，&#xa;不进行额外等待" style="fillColor=#ffff88;strokeColor=#9E916F;" vertex="1" parent="1">
          <mxGeometry x="2167.5" y="1008" width="150" height="50" as="geometry" />
        </mxCell>
      </root>
    </mxGraphModel>
  </diagram>
</mxfile>
